<?xml version="1.0" standalone="no"?>
<!DOCTYPE svg PUBLIC "-//W3C//DTD SVG 20010904//EN"
 "http://www.w3.org/TR/2001/REC-SVG-20010904/DTD/svg10.dtd">
<svg version="1.0" xmlns="http://www.w3.org/2000/svg"
 width="22.000000pt" height="17.000000pt" viewBox="0 0 220.000000 170.000000"
 preserveAspectRatio="xMidYMid meet">

<g transform="translate(0.000000,170.000000) scale(0.100000,-0.100000)"
fill="#000000" stroke="none">
<path d="M0 850 l0 -850 1100 0 1100 0 0 850 0 850 -1100 0 -1100 0 0 -850z
m2100 385 l0 -345 -320 0 -320 0 0 90 c0 101 -12 141 -56 182 -48 44 -72 48
-305 48 -239 0 -262 -4 -311 -56 -39 -42 -48 -75 -48 -175 l0 -89 -320 0 -320
0 0 345 0 345 1000 0 1000 0 0 -345z m-964 -304 c129 -75 148 -92 124 -115
-33 -31 -250 -148 -265 -142 -13 4 -15 31 -15 159 0 85 3 157 7 160 13 14 33
6 149 -62z m-396 -209 c0 -120 22 -174 85 -209 38 -22 51 -23 267 -23 241 0
264 4 312 48 44 42 56 81 56 187 l0 95 320 0 320 0 0 -350 0 -350 -1000 0
-1000 0 0 350 0 350 320 0 320 0 0 -98z"/>
<path d="M170 1430 l0 -70 70 0 70 0 0 70 0 70 -70 0 -70 0 0 -70z"/>
<path d="M380 1430 l0 -70 75 0 76 0 -3 68 -3 67 -72 3 -73 3 0 -71z"/>
<path d="M600 1430 l0 -70 70 0 70 0 0 70 0 70 -70 0 -70 0 0 -70z"/>
<path d="M810 1430 l0 -70 75 0 76 0 -3 68 -3 67 -72 3 -73 3 0 -71z"/>
<path d="M1030 1430 l0 -70 70 0 70 0 0 70 0 70 -70 0 -70 0 0 -70z"/>
<path d="M1240 1430 l0 -70 75 0 76 0 -3 68 -3 67 -72 3 -73 3 0 -71z"/>
<path d="M1460 1430 l0 -70 70 0 70 0 0 70 0 70 -70 0 -70 0 0 -70z"/>
<path d="M1670 1430 l0 -70 75 0 76 0 -3 68 -3 67 -72 3 -73 3 0 -71z"/>
<path d="M1890 1430 l0 -70 70 0 70 0 0 70 0 70 -70 0 -70 0 0 -70z"/>
<path d="M170 270 l0 -70 70 0 71 0 -3 68 -3 67 -67 3 -68 3 0 -71z"/>
<path d="M387 333 c-4 -3 -7 -35 -7 -70 l0 -63 75 0 75 0 0 54 c0 83 -3 86
-74 86 -35 0 -66 -3 -69 -7z"/>
<path d="M600 270 l0 -70 70 0 71 0 -3 68 -3 67 -67 3 -68 3 0 -71z"/>
<path d="M817 334 c-4 -4 -7 -36 -7 -71 l0 -63 75 0 76 0 -3 68 -3 67 -65 3
c-36 2 -69 0 -73 -4z"/>
<path d="M1030 270 l0 -70 70 0 71 0 -3 68 -3 67 -67 3 -68 3 0 -71z"/>
<path d="M1247 334 c-4 -4 -7 -36 -7 -71 l0 -63 75 0 76 0 -3 68 -3 67 -65 3
c-36 2 -69 0 -73 -4z"/>
<path d="M1460 270 l0 -70 70 0 71 0 -3 68 -3 67 -67 3 -68 3 0 -71z"/>
<path d="M1677 334 c-4 -4 -7 -36 -7 -71 l0 -63 75 0 76 0 -3 68 -3 67 -65 3
c-36 2 -69 0 -73 -4z"/>
<path d="M1890 270 l0 -70 70 0 71 0 -3 68 -3 67 -67 3 -68 3 0 -71z"/>
</g>
</svg>
