<?xml version="1.0" standalone="no"?>
<!DOCTYPE svg PUBLIC "-//W3C//DTD SVG 20010904//EN"
 "http://www.w3.org/TR/2001/REC-SVG-20010904/DTD/svg10.dtd">
<svg version="1.0" xmlns="http://www.w3.org/2000/svg"
 width="220.000000pt" height="170.000000pt" viewBox="0 0 220.000000 170.000000"
 preserveAspectRatio="xMidYMid meet">

<g transform="translate(0.000000,170.000000) scale(0.100000,-0.100000)"
fill="#FFFFFF" stroke="none">
<path d="M100 1235 l0 -345 320 0 320 0 0 98 c0 115 20 162 85 199 38 22 50
23 267 23 241 0 264 -4 312 -48 44 -41 56 -81 56 -182 l0 -90 320 0 320 0 0
345 0 345 -1000 0 -1000 0 0 -345z m210 195 l0 -70 -70 0 -70 0 0 70 0 70 70
0 70 0 0 -70z m220 0 l0 -70 -75 0 -75 0 0 70 0 70 75 0 75 0 0 -70z m210 0
l0 -70 -70 0 -70 0 0 70 0 70 70 0 70 0 0 -70z m220 0 l0 -70 -75 0 -75 0 0
70 0 70 75 0 75 0 0 -70z m210 0 l0 -70 -70 0 -70 0 0 70 0 70 70 0 70 0 0
-70z m220 0 l0 -70 -75 0 -75 0 0 70 0 70 75 0 75 0 0 -70z m210 0 l0 -70 -70
0 -70 0 0 70 0 70 70 0 70 0 0 -70z m220 0 l0 -70 -75 0 -75 0 0 70 0 70 75 0
75 0 0 -70z m210 0 l0 -70 -70 0 -70 0 0 70 0 70 70 0 70 0 0 -70z"/>
<path d="M987 993 c-4 -3 -7 -75 -7 -160 0 -126 3 -155 15 -159 23 -9 270 138
270 161 0 14 -35 39 -125 92 -124 72 -140 79 -153 66z"/>
<path d="M100 470 l0 -350 1000 0 1000 0 0 350 0 350 -320 0 -320 0 0 -100 c0
-69 -5 -110 -14 -129 -19 -35 -79 -89 -109 -96 -12 -4 -129 -5 -259 -3 -221 3
-238 4 -264 24 -61 45 -69 66 -72 190 l-4 114 -319 0 -319 0 0 -350z m210
-205 l0 -75 -70 0 -70 0 0 75 0 75 70 0 70 0 0 -75z m215 0 l0 -70 -70 0 -70
0 -3 59 c-4 86 -3 87 75 84 l68 -3 0 -70z m215 0 l0 -75 -70 0 -70 0 0 75 0
75 70 0 70 0 0 -75z m215 0 l0 -70 -70 0 -70 0 -3 59 c-4 86 -3 87 75 84 l68
-3 0 -70z m215 0 l0 -75 -70 0 -70 0 0 75 0 75 70 0 70 0 0 -75z m215 0 l0
-70 -70 0 -70 0 -3 59 c-4 86 -3 87 75 84 l68 -3 0 -70z m215 0 l0 -75 -70 0
-70 0 0 75 0 75 70 0 70 0 0 -75z m215 0 l0 -70 -70 0 -70 0 -3 59 c-4 86 -3
87 75 84 l68 -3 0 -70z m215 0 l0 -75 -70 0 -70 0 0 75 0 75 70 0 70 0 0 -75z"/>
</g>
</svg>
